<svg width="20" height="20" viewBox="0 0 20 20" fill="none" xmlns="http://www.w3.org/2000/svg">
<path d="M9.76168 18.2208H16.0332C16.5036 18.2208 17.3942 18.3337 17.3942 17.7034L17.4098 15.9129C17.7266 15.9129 18.2596 15.8721 18.2596 15.4519C18.2596 14.5112 18.2628 14.1098 18.2628 13.1753C18.4697 13.1753 18.6328 12.9464 18.6328 12.7489V11.1057C18.6328 10.9082 18.4948 10.5789 18.2628 10.5789C18.2628 9.76989 18.2628 9.37164 18.2628 8.56575C18.2628 7.95741 17.3409 7.84452 16.8956 7.84452H12.6654C12.2013 7.84452 11.8815 7.39924 12.01 6.96023L12.6341 3.87776C12.678 3.65512 12.5996 3.14712 12.4647 2.65167C12.3801 2.34436 12.2672 1.85518 11.9881 1.66076C11.6776 1.44126 11.2167 1.30956 10.8467 1.39109L10.3136 3.96556C10.2885 4.09413 10.2289 4.20702 10.1474 4.29482L6.9238 8.31489V15.0286C6.9238 15.6652 7.02728 16.3331 7.32832 16.9006C7.83318 17.8571 8.73628 18.2208 9.76168 18.2208ZM5.5566 8.75703L2.11352 8.73508C1.41424 8.72881 1.37034 8.89187 1.37034 9.56293V17.3679C1.37034 17.9919 1.39229 18.2208 2.06021 18.2208H5.5566V8.75703ZM6.9238 18.5814V18.9075C6.9238 19.2838 6.61649 19.5911 6.2402 19.5911H6.22452H2.06021C0.598934 19.5911 0 18.7508 0 17.3679V9.56293C0 8.14242 0.630292 7.36475 2.11979 7.37415L5.91408 7.3961L9.00596 3.5391L9.51709 0.983436C9.55158 0.801561 9.63625 0.635365 9.75541 0.497391C10.508 -0.361813 12.1543 0.0207524 12.9414 0.67613L12.9884 0.713759C13.3082 0.995979 13.5967 1.63254 13.7786 2.29106C13.9636 2.96525 14.0546 3.72097 13.9699 4.1443L13.4995 6.47418H16.8956C18.1844 6.47418 19.63 7.07625 19.63 8.56575V8.91382C19.63 9.23681 19.5861 9.5253 19.4857 9.77302C19.815 10.143 20 10.6071 20 11.1057V12.7489C20 13.2381 19.8119 13.6708 19.4701 14.0189C19.5861 14.3168 19.6268 14.6711 19.6268 15.0505V15.4519C19.6268 15.9693 19.4199 16.4679 18.9715 16.8223L18.73 16.9853C18.7708 17.2236 18.7614 17.4651 18.7614 17.7034C18.7614 19.3905 17.3754 19.5911 16.0332 19.5911H9.76168C8.72374 19.5911 7.70147 19.2901 6.9238 18.5814Z" fill="black"/>
</svg>
